<?xml version="1.0" standalone="no"?>
<!DOCTYPE svg PUBLIC "-//W3C//DTD SVG 20010904//EN"
 "http://www.w3.org/TR/2001/REC-SVG-20010904/DTD/svg10.dtd">
<svg version="1.0" xmlns="http://www.w3.org/2000/svg"
 width="275.000000pt" height="206.000000pt" viewBox="0 0 275.000000 206.000000"
 preserveAspectRatio="xMidYMid meet">

<g transform="translate(0.000000,206.000000) scale(0.100000,-0.100000)"
fill="#000000" stroke="none">
<path d="M0 1030 l0 -1030 1375 0 1375 0 0 1030 0 1030 -1375 0 -1375 0 0
-1030z m1500 791 c8 -16 6 -21 -10 -26 -49 -15 -3 -34 95 -38 42 -2 51 -6 64
-29 13 -23 13 -30 1 -55 -8 -15 -16 -32 -18 -36 -2 -5 17 8 43 28 86 65 213
117 321 131 l57 7 -6 -84 c-8 -99 -25 -166 -61 -245 -14 -31 -25 -58 -23 -60
1 -2 20 1 42 6 71 17 272 11 367 -10 48 -10 97 -24 108 -30 21 -11 21 -11 -6
-60 -87 -160 -269 -299 -460 -351 -43 -12 -80 -22 -82 -24 -2 -1 18 -32 43
-68 57 -83 90 -153 115 -252 30 -117 31 -115 -40 -115 -245 0 -504 149 -596
343 -13 28 -22 36 -33 31 -20 -10 -62 -10 -82 0 -11 5 -20 -3 -32 -29 -30 -63
-96 -144 -155 -190 -117 -92 -293 -155 -435 -155 l-68 0 6 38 c20 121 77 259
145 348 l39 51 -86 23 c-140 37 -231 89 -332 189 -94 92 -169 197 -153 213 5
5 43 19 83 30 87 24 327 36 399 19 24 -5 46 -8 48 -7 1 2 -9 30 -23 61 -38 87
-55 164 -55 250 l0 78 49 -7 c104 -14 260 -80 328 -138 27 -25 35 -28 28 -13
-15 37 -17 85 -4 101 9 12 25 15 54 12 22 -3 53 1 70 8 16 6 44 10 62 7 26 -4
33 -2 33 11 0 13 10 16 50 16 39 0 52 4 60 20 14 25 36 26 50 1z m-19 -1072
c39 -20 40 -21 23 -40 -24 -26 -58 -26 -49 1 8 25 -25 34 -95 28 -123 -12
-192 -153 -125 -252 29 -42 24 -67 -7 -39 -24 21 -57 89 -58 118 0 69 60 162
124 190 49 21 140 18 187 -6z m-129 -282 c-2 -31 -1 -70 3 -87 l7 -32 73 4
c58 3 81 8 105 27 24 17 35 20 43 11 9 -8 6 -16 -13 -30 -37 -29 -92 -41 -173
-38 l-72 3 -3 89 c-3 97 1 120 21 113 8 -3 11 -21 9 -60z"/>
<path d="M1370 1745 c0 -29 8 -32 26 -7 19 24 17 32 -6 32 -15 0 -20 -7 -20
-25z"/>
<path d="M753 1688 c7 -77 29 -154 67 -228 33 -66 176 -244 244 -306 74 -68
202 -119 213 -86 3 8 -8 12 -36 12 -99 0 -185 81 -206 193 -7 35 -6 37 18 37
34 0 81 -21 161 -74 67 -45 68 -45 61 -18 -9 37 -23 52 -49 52 -29 0 -45 14
-86 77 -19 29 -42 53 -51 53 -22 0 -49 32 -49 58 0 29 42 57 67 43 30 -15 107
-102 137 -154 35 -58 49 -61 32 -4 -26 84 -48 117 -76 117 -15 0 -35 9 -45 20
-15 17 -16 24 -6 47 11 24 9 29 -29 68 -23 23 -69 59 -103 79 -65 38 -200 86
-244 86 l-26 0 6 -72z"/>
<path d="M1884 1736 c-95 -31 -164 -70 -231 -131 -51 -46 -55 -53 -44 -73 7
-13 9 -32 6 -42 -7 -21 -46 -36 -64 -26 -17 11 -83 -145 -68 -160 3 -3 17 17
32 43 28 47 136 163 152 163 20 0 53 -33 53 -53 0 -29 -9 -41 -45 -58 -16 -8
-39 -30 -51 -49 -37 -59 -61 -80 -93 -80 -23 0 -31 -6 -39 -27 -5 -16 -13 -37
-18 -47 -5 -13 9 -7 47 22 63 47 154 92 188 92 21 0 23 -3 16 -37 -20 -107
-110 -193 -201 -193 -22 0 -34 -5 -34 -14 0 -11 8 -12 41 -5 90 21 166 78 278
213 136 163 188 271 198 413 l6 73 -29 0 c-16 -1 -61 -11 -100 -24z"/>
<path d="M1240 1730 c-8 -6 -32 -8 -52 -4 -51 8 -56 -10 -27 -83 34 -84 45
-96 78 -78 15 7 43 16 63 20 34 7 35 8 25 35 -9 22 -7 33 7 55 17 25 17 28 0
46 -18 21 -69 25 -94 9z"/>
<path d="M1426 1721 c-17 -19 -17 -21 0 -51 15 -25 16 -34 6 -50 -17 -27 -17
-27 25 -35 21 -4 51 -14 67 -22 27 -14 31 -14 43 3 8 11 17 30 20 44 3 14 14
40 24 59 25 47 16 61 -40 60 -25 0 -64 3 -86 6 -33 5 -44 3 -59 -14z"/>
<path d="M1283 1550 c-48 -15 -48 -27 0 -33 40 -5 74 -31 91 -69 5 -11 7 -11
12 0 18 38 51 64 92 69 42 6 42 6 20 21 -26 19 -167 26 -215 12z"/>
<path d="M1257 1483 c-4 -3 2 -20 13 -38 11 -17 26 -60 34 -94 14 -60 38 -101
59 -101 16 0 1 140 -18 182 -21 42 -69 71 -88 51z"/>
<path d="M1447 1470 c-32 -25 -46 -68 -47 -145 -2 -83 -3 -81 24 -56 13 13 26
39 30 62 3 21 17 64 31 95 14 31 25 58 25 60 0 12 -41 1 -63 -16z"/>
<path d="M1136 1422 c-4 -7 3 -25 18 -42 13 -17 27 -39 31 -49 6 -18 33 -36
42 -27 7 6 -22 57 -55 95 -19 24 -31 31 -36 23z"/>
<path d="M1595 1405 c-29 -32 -65 -85 -65 -97 0 -21 32 -4 46 25 9 17 25 42
36 54 11 12 18 27 16 35 -3 8 -14 3 -33 -17z"/>
<path d="M465 1394 c-11 -3 -50 -12 -87 -20 -38 -9 -68 -19 -68 -23 0 -10 49
-81 92 -133 48 -57 157 -139 231 -173 97 -45 238 -75 349 -75 95 0 196 18 242
42 17 9 13 13 -35 31 -98 36 -168 95 -287 242 -51 63 -73 83 -106 93 -41 14
-292 25 -331 16z"/>
<path d="M1990 1382 c-58 -15 -69 -22 -108 -72 -119 -150 -232 -246 -319 -271
-24 -7 -43 -15 -43 -19 0 -5 37 -18 83 -30 71 -20 98 -22 207 -17 147 6 212
22 339 83 75 37 108 61 171 122 69 69 139 166 128 177 -17 17 -143 37 -258 41
-107 3 -148 0 -200 -14z"/>
<path d="M1070 1257 c0 -25 60 -107 92 -127 39 -23 86 -26 114 -6 10 8 17 16
14 18 -3 2 -25 20 -50 40 -45 36 -140 88 -160 88 -5 0 -10 -6 -10 -13z"/>
<path d="M1628 1251 c-21 -10 -65 -39 -100 -66 -58 -45 -61 -48 -42 -62 30
-23 100 -11 136 23 29 28 68 93 68 114 0 14 -19 11 -62 -9z"/>
<path d="M1304 1228 c2 -7 10 -32 17 -55 8 -31 17 -43 30 -43 26 0 25 49 -2
84 -21 26 -55 37 -45 14z"/>
<path d="M1422 1223 c-12 -10 -24 -35 -28 -55 -6 -34 -4 -38 15 -38 14 0 22 8
27 28 3 15 10 39 14 55 10 31 1 34 -28 10z"/>
<path d="M1313 1042 c16 -148 86 -189 122 -70 8 28 15 68 15 88 l0 36 -71 2
-72 2 6 -58z"/>
<path d="M1213 974 c-76 -28 -199 -45 -274 -37 -54 5 -56 5 -92 -33 -62 -66
-134 -219 -152 -324 l-7 -43 68 7 c176 18 304 75 414 185 96 96 143 185 127
237 -6 19 -13 33 -16 33 -3 -1 -34 -12 -68 -25z"/>
<path d="M1466 978 c-3 -13 -6 -32 -6 -42 0 -39 57 -132 125 -201 107 -109
243 -170 423 -191 74 -8 74 -6 41 102 -27 88 -66 164 -120 238 l-44 58 -60 -4
c-89 -7 -209 9 -280 37 -75 30 -71 30 -79 3z"/>
</g>
</svg>
